<svg width="119" height="118" fill="none" xmlns="http://www.w3.org/2000/svg"><path d="M9.477 31.354c-1.454 1.657-1.7 2.51-.864 3.09.42.27.515.268 1.222-.119.89-.502 1.315-.965 1.18-1.294-.054-.132.08-.65.322-1.134.34-.717.357-.956.155-1.353-.357-.681-.884-.464-2.015.81Zm30.701-8.602c-.942.658-3.42 2.775-3.811 3.225-.124.167-.181.402-.12.55.122.296.454.121 2.387-1.214.614-.426 1.99-1.243 3.062-1.82 1.055-.569 1.975-1.14 2.033-1.28.058-.139.006-.406-.115-.606-.199-.342-.295-.341-1.378.067-.632.24-1.562.74-2.058 1.078Zm9.655-1.282c.06.38.316.582 1.479 1.162.787.369 2.223 1.144 3.187 1.71.98.558 2.03 1.05 2.331 1.08.523.054.572.034.674-.374.124-.493-.233-1.078-1.126-1.846-.33-.287-1.732-.98-3.11-1.568-2.077-.838-2.617-.982-3.013-.819-.378.156-.476.293-.422.656ZM7.327 42.864c-1.254 3.172-1.415 5.491-.376 5.583.546.064.729-.474.856-2.547.064-.873.315-2.228.597-3.037.267-.803.427-1.581.366-1.73-.25-.608-.75.002-1.443 1.73ZM31.734 32.58c-.35.414-.933 1.29-1.323 1.931-.874 1.477-2.537 5.337-2.415 5.634.217.526.686.122 1.413-1.198.422-.751 1.427-2.378 2.227-3.612 1.608-2.452 1.863-3 1.598-3.41-.265-.411-.808-.188-1.5.656Zm27.453-3.913c-.016.103.173 1.122.433 2.266.252 1.128.545 2.913.654 3.927.3 2.783.62 3.517 1.41 3.192.528-.217.613-1.272.299-3.53-.31-2.105-1.54-5.795-2.032-6.054-.345-.185-.728-.085-.764.2ZM7.418 51.777c-.128.438 1.239 4.225 1.778 4.927.576.744 1.394 1.235 1.806 1.065.477-.196.358-.532-.924-2.43-.654-.981-1.37-2.207-1.581-2.717-.407-.987-.913-1.375-1.08-.845Zm19.19-5.189c-1.39 1.862-3.613 6.184-3.423 6.645.183.445.475.267.985-.598.556-.941 2.314-3.59 3.04-4.582.239-.31.554-.901.718-1.296.216-.551.214-.743-.006-.903-.456-.312-.597-.235-1.314.734ZM13.328 59.68c.102.246 2.005.521 3.191.456.882-.055 1.37-.18 2.314-.645 1.216-.597 2.258-1.527 2.109-1.889-.203-.493-.665-.4-2.147.442-1.765.996-3.211 1.457-4.53 1.48-.558 0-.97.073-.937.155Zm46.247-12.636c-1.195 4.765-1.287 6.035-.445 6.304.507.157 1.057-.378 1.24-1.242.318-1.517.788-6.735.623-6.994-.094-.135-.336-.208-.547-.16-.316.073-.484.508-.871 2.092ZM56.746 59.43c-1.093 2.394-1.825 6.41-1.485 8.08.233 1.078.775 1.74 1.285 1.53.56-.23.68-1.011.481-3.412-.194-2.48-.106-3.903.358-5.768.441-1.78.092-2.02-.639-.43Zm-2.438 17.403c-1.647 4.413-1.423 10.846.354 10.114.56-.23.612-.945.26-3.437-.315-2.353-.258-3.57.232-6.024.343-1.739.315-2.228-.162-2.031-.1.04-.4.665-.684 1.378Zm46.985-16.405c-.396.394-.556 1.172-.34 1.699.217.527 3.742 3.945 6.082 5.887 2.017 1.672 2.096 1.35-.579 2.8-.914.491-1.916 1.096-2.244 1.328-1.073.807-1.286 1.973-.399 2.07.658.055 8.686-3.54 8.87-3.98.332-.83.078-1.168-2.57-3.485a174.134 174.134 0 0 1-4.721-4.312c-2.737-2.626-3.238-2.862-4.099-2.007Z" fill="#000" fill-opacity=".6"/><path d="M94.584 66.945c.015.456.486.666 1.013.45.938-.387 2.372-.362 3.9.03 1.597.42 2.014.402 2.217-.086.329-.79-.94-1.442-3.04-1.54-1.12-.057-1.709.011-2.756.366-1.17.385-1.337.493-1.334.78Zm-3.641 3.732c-.378.483-2.012 5.256-2.346 6.876-.334 1.62-.226 2.114.4 1.952.277-.075.702-.866 1.734-3.313 1.447-3.405 1.816-4.751 1.474-5.303-.27-.466-.971-.582-1.262-.212ZM56.918 92.986c-.155.372.689 2.373 1.517 3.59.896 1.287 1.67 1.95 2.774 2.342 1.354.482 2.952.016 2.87-.836-.034-.505-.204-.589-1.551-.823-.646-.12-1.461-.323-1.803-.451-.84-.309-1.932-1.514-2.617-2.85-.58-1.127-.986-1.46-1.19-.972Zm30.529-9.532c-1.105 1.803-1.618 2.38-3.125 3.443-.974.67-1.204 1.189-.682 1.474.422.23 1.442-.19 2.93-1.206 1.477-.993 2.584-2.277 3.113-3.611.457-1.132.46-1.826-.008-2.076-.592-.314-1.139.18-2.228 1.976ZM69.598 98.909c-.01.12.045.25.155.283 2.673.65 5.518.826 7.372.467 2.186-.439 4.731-2.064 4.561-2.899-.028-.162-.275-.387-.554-.503-.488-.204-.586-.163-3.113.993-3.33 1.544-5.038 1.882-7.451 1.49-.884-.136-.924-.139-.97.169Z" fill="#000" fill-opacity=".6"/></svg>