<svg width="23" height="24" fill="none" xmlns="http://www.w3.org/2000/svg"><path d="M10.67.007C8.93.181 7.62.575 6.196 1.34c-2.17 1.173-3.923 3.036-5.008 5.326C.77 7.544.576 8.083.356 8.947c-.27 1.089-.351 1.75-.356 2.952 0 .6.023 1.248.054 1.502.248 1.924.824 3.58 1.792 5.129l.325.52-.716 2.202c-.397 1.215-.712 2.21-.703 2.22.01.009.99-.31 2.189-.71 1.198-.398 2.193-.727 2.216-.727.018 0 .202.108.41.244.207.132.639.376.959.535 2.914 1.45 6.242 1.577 9.223.343 3.378-1.394 5.972-4.449 6.9-8.119.283-1.126.351-1.74.351-3.045s-.068-1.92-.351-3.046c-1.09-4.303-4.4-7.65-8.58-8.668C13.367.11 12.637.021 11.75.007c-.495-.01-.982-.01-1.08 0ZM7.921 5.573a.71.71 0 0 1 .234.258c.13.249 1.23 2.994 1.261 3.163.04.211-.162.572-.608 1.098-.468.55-.567.723-.527.92.077.356 1.117 1.797 1.761 2.43.995.982 2.5 1.915 3.17 1.967.347.023.469-.075 1-.807.24-.333.491-.667.568-.742.171-.183.428-.22.72-.107.37.145 2.635 1.295 2.797 1.421l.153.118-.027.497c-.063 1.277-.495 1.938-1.63 2.516-1.08.549-1.928.535-3.58-.061-2.225-.803-3.4-1.568-5-3.243a16.984 16.984 0 0 1-2.017-2.516c-1.072-1.595-1.482-2.83-1.36-4.082.099-1.005.437-1.746 1.117-2.455.329-.342.756-.483 1.405-.46.275.01.477.038.563.085Z" fill="url(#a)"/><defs><linearGradient id="a" x1="2.614" y1="24" x2="16.171" y2="5.715" gradientUnits="userSpaceOnUse"><stop stop-color="#217FEC"/><stop offset="1" stop-color="#E15E79"/></linearGradient></defs></svg>