<svg width="25" height="22" fill="none" xmlns="http://www.w3.org/2000/svg"><path d="M14.695 3.41C-1.416 10.03.25 9.324.095 9.624a.82.82 0 0 0 .243 1.048c.134.09 1.479.56 2.99 1.048 1.518.487 2.792.925 2.84.974.046.049.59 1.73 1.203 3.744.975 3.191 1.148 3.679 1.353 3.882.252.235.55.276.826.114.094-.057.92-.82 1.833-1.698l1.668-1.6 2.375 1.803C19.588 22.081 19.47 22 19.808 22a.826.826 0 0 0 .77-.544C20.722 21.082 25 1.982 25 1.73c0-.942-.763-1.738-1.652-1.73-.275 0-2.124.73-8.653 3.41Zm8.024-1.274c-.11.097-2.99 2.753-6.412 5.896a1581.417 1581.417 0 0 0-6.387 5.88c-.15.145-.22.478-.496 2.119-.18 1.072-.346 2.014-.378 2.095-.063.154-1.636-5.538-1.58-5.7.03-.074 15.316-10.477 15.41-10.485.016 0-.055.09-.157.195Z" fill="url(#a)"/><defs><linearGradient id="a" x1="3.646" y1="22" x2="25.125" y2=".122" gradientUnits="userSpaceOnUse"><stop stop-color="#13B6EA"/><stop offset="1" stop-color="#60D7FF"/></linearGradient></defs></svg>