<svg width="25" height="26" fill="none" xmlns="http://www.w3.org/2000/svg"><path d="M8.89.034a12.24 12.24 0 0 0-2.242.444C5.15.941 4.04 1.588 2.855 2.686 1.67 3.79.947 4.856.45 6.25.007 7.476 0 7.571 0 11.06c0 2.823.014 3.23.123 3.692a9.366 9.366 0 0 0 4.85 6.186l.545.279.013 2.277c.02 2.24.02 2.284.164 2.392.334.26.374.235 2.616-1.846l2.111-1.967 3.168-.025c2.909-.025 3.215-.038 3.747-.152 3.494-.793 6.144-3.033 7.24-6.11.416-1.167.423-1.275.423-4.726 0-2.823-.014-3.23-.123-3.711-.401-1.758-1.246-3.248-2.56-4.517C20.666 1.227 18.65.3 16.3.059c-.6-.063-6.785-.082-7.411-.025Zm6.185 3.673c2.984.571 5.19 3.077 5.19 5.894 0 .514-.081 1.218-.176 1.51-.055.171-.395.31-.6.234-.28-.095-.334-.266-.238-.76.047-.26.068-.724.047-1.18-.06-1.282-.545-2.354-1.471-3.274-1.09-1.072-2.303-1.58-3.985-1.675-.6-.038-.777-.07-.879-.165-.163-.152-.156-.311.02-.52.137-.159.164-.165.852-.165.395 0 .954.044 1.24.101ZM8.235 5.16c.273.12 2.494 2.201 2.65 2.487.389.698.082 1.453-.728 1.795-.688.286-1.056.8-.968 1.351.212 1.257 2.003 3.14 3.481 3.655.838.291 1.54.05 1.935-.68.218-.399.49-.665.777-.767.265-.095.824-.088 1.09.02.238.088 2.493 2.2 2.71 2.53.17.267.17.813 0 1.155-.163.33-1.71 1.745-2.118 1.935-.817.394-2.296.171-3.903-.577-.538-.254-1.982-1.142-2.602-1.612-2.793-2.087-5.123-5.075-5.695-7.302-.205-.818-.17-1.636.102-2.1.259-.444 1.84-1.89 2.16-1.979.292-.082.81-.044 1.11.089Zm6.676.285c.825.197 1.417.52 2.092 1.142.92.85 1.355 1.796 1.362 2.957.007.33-.027.64-.075.717-.116.209-.374.279-.613.165-.245-.115-.293-.26-.238-.686.054-.431-.11-1.16-.375-1.668-.259-.495-.872-1.104-1.396-1.39-.613-.342-1.186-.482-1.928-.482-.722-.006-.9-.088-.9-.437 0-.343.212-.444.92-.444.402 0 .818.044 1.151.127Zm.062 1.897c.858.387 1.464 1.206 1.532 2.037.028.374.014.444-.115.564-.32.299-.709.058-.777-.482-.054-.431-.238-.761-.613-1.078-.306-.267-.824-.463-1.213-.463a.42.42 0 0 1-.327-.165c-.177-.216-.177-.286.007-.501.136-.165.164-.172.613-.146.334.025.586.088.893.234Z" fill="url(#a)"/><defs><linearGradient id="a" x1="4.348" y1="22.88" x2="19.24" y2="2.485" gradientUnits="userSpaceOnUse"><stop stop-color="#985FF6"/><stop offset="1" stop-color="#AC7AFF"/></linearGradient></defs></svg>