<svg xmlns="http://www.w3.org/2000/svg" xmlns:xlink="http://www.w3.org/1999/xlink">
   <symbol fill="none" viewBox="0 0 23 24" id="icon-call-footer" xmlns="http://www.w3.org/2000/svg">
      <path d="M10.67.007C8.93.181 7.62.575 6.196 1.34c-2.17 1.173-3.923 3.036-5.008 5.326C.77 7.544.576 8.083.356 8.947c-.27 1.089-.351 1.75-.356 2.952 0 .6.023 1.248.054 1.502.248 1.924.824 3.58 1.792 5.129l.325.52-.716 2.202c-.397 1.215-.712 2.21-.703 2.22.01.009.99-.31 2.189-.71 1.198-.398 2.193-.727 2.216-.727.018 0 .202.108.41.244.207.132.639.376.959.535 2.914 1.45 6.242 1.577 9.223.343 3.378-1.394 5.972-4.449 6.9-8.119.283-1.126.351-1.74.351-3.045s-.068-1.92-.351-3.046c-1.09-4.303-4.4-7.65-8.58-8.668C13.367.11 12.637.021 11.75.007c-.495-.01-.982-.01-1.08 0ZM7.921 5.573a.71.71 0 0 1 .234.258c.13.249 1.23 2.994 1.261 3.163.04.211-.162.572-.608 1.098-.468.55-.567.723-.527.92.077.356 1.117 1.797 1.761 2.43.995.982 2.5 1.915 3.17 1.967.347.023.469-.075 1-.807.24-.333.491-.667.568-.742.171-.183.428-.22.72-.107.37.145 2.635 1.295 2.797 1.421l.153.118-.027.497c-.063 1.277-.495 1.938-1.63 2.516-1.08.549-1.928.535-3.58-.061-2.225-.803-3.4-1.568-5-3.243a16.984 16.984 0 0 1-2.017-2.516c-1.072-1.595-1.482-2.83-1.36-4.082.099-1.005.437-1.746 1.117-2.455.329-.342.756-.483 1.405-.46.275.01.477.038.563.085Z" fill="url(#ca)" />
      <defs>
         <linearGradient id="ca" x1="2.614" y1="24" x2="16.171" y2="5.715" gradientUnits="userSpaceOnUse">
            <stop stop-color="#217FEC" />
            <stop offset="1" stop-color="#E15E79" />
         </linearGradient>
      </defs>
   </symbol>
   <symbol viewBox="0 -4.5 20 20" id="icon-arrow" xmlns="http://www.w3.org/2000/svg">
      <path d="M19.708 10.634c.39-.405.39-1.06 0-1.464L11.444.607a1.95 1.95 0 0 0-2.827 0L.292 9.232c-.385.4-.39 1.048-.01 1.454a.976.976 0 0 0 1.425.01l7.617-7.893a.975.975 0 0 1 1.414 0l7.557 7.83a.974.974 0 0 0 1.413 0" fill-rule="evenodd" />
   </symbol>
   <symbol viewBox="0 0 14 14" id="icon-check" xmlns="http://www.w3.org/2000/svg">
      <path d="M14 7A7 7 0 1 1 0 7a7 7 0 0 1 14 0Zm-7.81 3.706 5.194-5.193a.452.452 0 0 0 0-.639l-.639-.638a.452.452 0 0 0-.638 0L5.87 8.47 3.893 6.494a.452.452 0 0 0-.638 0l-.639.638a.452.452 0 0 0 0 .639l2.936 2.935a.452.452 0 0 0 .638 0Z" />
   </symbol>
   <symbol fill="none" viewBox="0 0 30 29" id="icon-insta" xmlns="http://www.w3.org/2000/svg">
      <path d="M7.645.082C4.527.52 2.017 2.762 1.252 5.797a8.633 8.633 0 0 0-.192 1.012c-.082.678-.082 13.704 0 14.383.378 3.188 2.647 5.78 5.737 6.556.284.077.744.16 1.012.192.678.082 13.704.082 14.382 0 2.872-.34 5.272-2.215 6.317-4.927.17-.443.366-1.275.432-1.822.082-.678.082-13.704 0-14.382-.34-2.871-2.215-5.272-4.928-6.317-.442-.17-1.274-.366-1.82-.432-.75-.093-13.897-.07-14.547.022Zm16.193 3.566a2.425 2.425 0 0 1 1.514 1.515c.115.339.12 1.006.011 1.367-.448 1.482-2.215 2.116-3.5 1.258a2.3 2.3 0 0 1-1.017-2.259 2.361 2.361 0 0 1 1.553-1.87c.372-.126 1.078-.137 1.438-.011Zm-7.635 2.778c1.624.268 3.057 1 4.211 2.16 1.471 1.466 2.242 3.33 2.242 5.414 0 2.084-.77 3.948-2.242 5.414-1.466 1.471-3.33 2.242-5.414 2.242-2.084 0-3.948-.77-5.414-2.242-1.471-1.466-2.242-3.33-2.242-5.414 0-2.084.77-3.948 2.242-5.414a7.713 7.713 0 0 1 4.156-2.16c.563-.093 1.892-.099 2.461 0Z" fill="#fff" />
      <path d="M22.815 5.277c-.317.17-.438.635-.246.93.372.569 1.236.317 1.236-.355 0-.493-.558-.81-.99-.575ZM13.94 8.072A6.052 6.052 0 0 0 8.983 14c0 3.713 3.386 6.568 7.033 5.933 4.009-.7 6.185-5.08 4.326-8.695-1.203-2.324-3.84-3.631-6.404-3.166Z" fill="#fff" />
   </symbol>
   <symbol fill="none" viewBox="0 0 20 20" id="icon-message" xmlns="http://www.w3.org/2000/svg">
      <path d="M8.581.856c-.826.127-1.677.326-2.265.533C3.336 2.429 1.15 4.727.379 7.628c-.175.651-.207.945-.215 1.923 0 .652.04 1.36.104 1.63a8.906 8.906 0 0 0 2.734 4.76l.691.628v3.298l1.598-.874 1.59-.874.73.143c1.002.207 3.076.207 4.03.008 2.416-.509 4.435-1.749 5.802-3.569 3.87-5.134.922-12.224-5.683-13.662C11.07.888 9.122.777 8.581.856Zm2.575 8.854c.032 0 .986-.517 2.122-1.137 2.727-1.51 2.512-1.406 2.21-1.08-.397.445-4.244 4.538-4.578 4.88l-.31.318-.453-.477c-.254-.263-.795-.843-1.216-1.288l-.755-.81-1.908 1.033c-1.04.572-2.098 1.144-2.336 1.28l-.43.246.27-.31c.144-.175 1.304-1.407 2.568-2.758l2.305-2.44 1.224 1.271c.675.7 1.255 1.272 1.287 1.272Z" fill="#fff" />
   </symbol>
   <symbol viewBox="0 0 10 12" id="icon-play" xmlns="http://www.w3.org/2000/svg">
      <path d="M8.755 5.165a1 1 0 0 1 0 1.67l-6.214 4.1A1 1 0 0 1 .99 10.1V1.9a1 1 0 0 1 1.55-.835l6.215 4.1Z" />
   </symbol>
   <symbol viewBox="0 0 24 24" id="icon-simple-arrow" xmlns="http://www.w3.org/2000/svg">
      <path fill="none" stroke="#000" stroke-linecap="round" stroke-linejoin="round" stroke-width="2" d="m8.5 5 7 7-7 7" />
   </symbol>
   <symbol fill="none" viewBox="0 0 21 18" id="icon-telegram" xmlns="http://www.w3.org/2000/svg">
      <path d="M12.558 3.352c-12.717 5.06-11.4 4.52-11.524 4.75a.616.616 0 0 0 .192.801c.106.069 1.167.429 2.36.801 1.198.373 2.204.708 2.241.745.037.038.466 1.323.95 2.863.77 2.44.907 2.813 1.068 2.968.199.18.435.211.652.087.075-.044.727-.627 1.447-1.298l1.316-1.223 1.876 1.378c3.284 2.403 3.191 2.341 3.458 2.341.267 0 .51-.161.609-.416.111-.285 3.49-14.89 3.49-15.082 0-.72-.603-1.329-1.305-1.323-.217 0-1.676.56-6.83 2.608Zm6.334-.975c-.087.075-2.36 2.105-5.061 4.508a1232.464 1232.464 0 0 0-5.042 4.496c-.118.112-.174.366-.391 1.62-.143.82-.273 1.54-.298 1.602-.05.118-1.292-4.234-1.248-4.358.025-.056 12.09-8.01 12.164-8.017.012 0-.044.069-.124.15Z" fill="#fff" />
   </symbol>
   <symbol fill="none" viewBox="0 0 25 22" id="icon-telegram-footer" xmlns="http://www.w3.org/2000/svg">
      <path d="M14.695 3.41C-1.416 10.03.25 9.324.095 9.624a.82.82 0 0 0 .243 1.048c.134.09 1.479.56 2.99 1.048 1.518.487 2.792.925 2.84.974.046.049.59 1.73 1.203 3.744.975 3.191 1.148 3.679 1.353 3.882.252.235.55.276.826.114.094-.057.92-.82 1.833-1.698l1.668-1.6 2.375 1.803C19.588 22.081 19.47 22 19.808 22a.826.826 0 0 0 .77-.544C20.722 21.082 25 1.982 25 1.73c0-.942-.763-1.738-1.652-1.73-.275 0-2.124.73-8.653 3.41Zm8.024-1.274c-.11.097-2.99 2.753-6.412 5.896a1581.417 1581.417 0 0 0-6.387 5.88c-.15.145-.22.478-.496 2.119-.18 1.072-.346 2.014-.378 2.095-.063.154-1.636-5.538-1.58-5.7.03-.074 15.316-10.477 15.41-10.485.016 0-.055.09-.157.195Z" fill="url(#ia)" />
      <defs>
         <linearGradient id="ia" x1="3.646" y1="22" x2="25.125" y2=".122" gradientUnits="userSpaceOnUse">
            <stop stop-color="#13B6EA" />
            <stop offset="1" stop-color="#60D7FF" />
         </linearGradient>
      </defs>
   </symbol>
   <symbol fill="none" viewBox="0 0 25 26" id="icon-viber-footer" xmlns="http://www.w3.org/2000/svg">
      <path d="M8.89.034a12.24 12.24 0 0 0-2.242.444C5.15.941 4.04 1.588 2.855 2.686 1.67 3.79.947 4.856.45 6.25.007 7.476 0 7.571 0 11.06c0 2.823.014 3.23.123 3.692a9.366 9.366 0 0 0 4.85 6.186l.545.279.013 2.277c.02 2.24.02 2.284.164 2.392.334.26.374.235 2.616-1.846l2.111-1.967 3.168-.025c2.909-.025 3.215-.038 3.747-.152 3.494-.793 6.144-3.033 7.24-6.11.416-1.167.423-1.275.423-4.726 0-2.823-.014-3.23-.123-3.711-.401-1.758-1.246-3.248-2.56-4.517C20.666 1.227 18.65.3 16.3.059c-.6-.063-6.785-.082-7.411-.025Zm6.185 3.673c2.984.571 5.19 3.077 5.19 5.894 0 .514-.081 1.218-.176 1.51-.055.171-.395.31-.6.234-.28-.095-.334-.266-.238-.76.047-.26.068-.724.047-1.18-.06-1.282-.545-2.354-1.471-3.274-1.09-1.072-2.303-1.58-3.985-1.675-.6-.038-.777-.07-.879-.165-.163-.152-.156-.311.02-.52.137-.159.164-.165.852-.165.395 0 .954.044 1.24.101ZM8.235 5.16c.273.12 2.494 2.201 2.65 2.487.389.698.082 1.453-.728 1.795-.688.286-1.056.8-.968 1.351.212 1.257 2.003 3.14 3.481 3.655.838.291 1.54.05 1.935-.68.218-.399.49-.665.777-.767.265-.095.824-.088 1.09.02.238.088 2.493 2.2 2.71 2.53.17.267.17.813 0 1.155-.163.33-1.71 1.745-2.118 1.935-.817.394-2.296.171-3.903-.577-.538-.254-1.982-1.142-2.602-1.612-2.793-2.087-5.123-5.075-5.695-7.302-.205-.818-.17-1.636.102-2.1.259-.444 1.84-1.89 2.16-1.979.292-.082.81-.044 1.11.089Zm6.676.285c.825.197 1.417.52 2.092 1.142.92.85 1.355 1.796 1.362 2.957.007.33-.027.64-.075.717-.116.209-.374.279-.613.165-.245-.115-.293-.26-.238-.686.054-.431-.11-1.16-.375-1.668-.259-.495-.872-1.104-1.396-1.39-.613-.342-1.186-.482-1.928-.482-.722-.006-.9-.088-.9-.437 0-.343.212-.444.92-.444.402 0 .818.044 1.151.127Zm.062 1.897c.858.387 1.464 1.206 1.532 2.037.028.374.014.444-.115.564-.32.299-.709.058-.777-.482-.054-.431-.238-.761-.613-1.078-.306-.267-.824-.463-1.213-.463a.42.42 0 0 1-.327-.165c-.177-.216-.177-.286.007-.501.136-.165.164-.172.613-.146.334.025.586.088.893.234Z" fill="url(#ka)" />
      <defs>
         <linearGradient id="ka" x1="4.348" y1="22.88" x2="19.24" y2="2.485" gradientUnits="userSpaceOnUse">
            <stop stop-color="#985FF6" />
            <stop offset="1" stop-color="#AC7AFF" />
         </linearGradient>
      </defs>
   </symbol>
   <symbol xmlns="http://www.w3.org/2000/svg" id="icon-stars" xmlns:xlink="http://www.w3.org/1999/xlink" viewBox="0 0 121 20">
      <g>
         <path d="M11.1,0,13.6,7.673h8.067l-6.527,4.742,2.493,7.673L11.1,15.345,4.577,20.087,7.07,12.415.543,7.673H8.611Z" transform="translate(-0.543)" />
         <path d="M11.1,0,13.6,7.673h8.067l-6.527,4.742,2.493,7.673L11.1,15.345,4.577,20.087,7.07,12.415.543,7.673H8.611Z" transform="translate(-0.543)" />
         <path d="M11.1,0,13.6,7.673h8.067l-6.527,4.742,2.493,7.673L11.1,15.345,4.577,20.087,7.07,12.415.543,7.673H8.611Z" transform="translate(-0.543)" />
         <path d="M11.1,0,13.6,7.673h8.067l-6.527,4.742,2.493,7.673L11.1,15.345,4.577,20.087,7.07,12.415.543,7.673H8.611Z" transform="translate(24.457)" />
         <path d="M11.1,0,13.6,7.673h8.067l-6.527,4.742,2.493,7.673L11.1,15.345,4.577,20.087,7.07,12.415.543,7.673H8.611Z" transform="translate(49.457)" />
         <path d="M11.1,0,13.6,7.673h8.067l-6.527,4.742,2.493,7.673L11.1,15.345,4.577,20.087,7.07,12.415.543,7.673H8.611Z" transform="translate(74.457)" />
         <path d="M11.1,0,13.6,7.673h8.067l-6.527,4.742,2.493,7.673L11.1,15.345,4.577,20.087,7.07,12.415.543,7.673H8.611Z" transform="translate(99.457)" />
      </g>
   </symbol>
</svg>